<svg width="24" height="24" viewBox="0 0 24 24" fill="none" xmlns="http://www.w3.org/2000/svg">
<g clip-path="url(#clip0_501_26447)">
<path d="M18.4697 10.5303C18.7626 10.8232 19.2374 10.8232 19.5303 10.5303C19.8232 10.2374 19.8232 9.76256 19.5303 9.46967L12.5303 2.46967C12.3897 2.32902 12.1989 2.25 12 2.25C11.8011 2.25 11.6103 2.32902 11.4697 2.46967L4.46967 9.46967C4.17678 9.76256 4.17678 10.2374 4.46967 10.5303C4.76256 10.8232 5.23744 10.8232 5.53033 10.5303L11.25 4.81066L11.25 21C11.25 21.4142 11.5858 21.75 12 21.75C12.4142 21.75 12.75 21.4142 12.75 21V4.81066L18.4697 10.5303Z" fill="#41416E"/>
</g>
<defs>
<clipPath id="clip0_501_26447">
<rect width="24" height="24" fill="white"/>
</clipPath>
</defs>
</svg>
