<svg width="24" height="24" viewBox="0 0 24 24" fill="none" xmlns="http://www.w3.org/2000/svg">
<g clip-path="url(#clip0_501_26468)">
<path d="M13.4697 18.4697C13.1768 18.7626 13.1768 19.2374 13.4697 19.5303C13.7626 19.8232 14.2374 19.8232 14.5303 19.5303L21.5303 12.5303C21.671 12.3897 21.75 12.1989 21.75 12C21.75 11.8011 21.671 11.6103 21.5303 11.4697L14.5303 4.46967C14.2374 4.17678 13.7626 4.17678 13.4697 4.46967C13.1768 4.76256 13.1768 5.23744 13.4697 5.53033L19.1893 11.25L3 11.25C2.58579 11.25 2.25 11.5858 2.25 12C2.25 12.4142 2.58579 12.75 3 12.75L19.1893 12.75L13.4697 18.4697Z" fill="#41416E"/>
</g>
<defs>
<clipPath id="clip0_501_26468">
<rect width="24" height="24" fill="white"/>
</clipPath>
</defs>
</svg>
