<svg width="24" height="24" viewBox="0 0 24 24" fill="none" xmlns="http://www.w3.org/2000/svg">
<g clip-path="url(#clip0_501_26446)">
<path d="M12.75 3C12.75 2.58579 12.4142 2.25 12 2.25C11.5858 2.25 11.25 2.58579 11.25 3L11.25 19.1893L5.53033 13.4697C5.23744 13.1768 4.76256 13.1768 4.46967 13.4697C4.17678 13.7626 4.17678 14.2374 4.46967 14.5303L11.4697 21.5303C11.6103 21.671 11.8011 21.75 12 21.75C12.1989 21.75 12.3897 21.671 12.5303 21.5303L19.5303 14.5303C19.8232 14.2374 19.8232 13.7626 19.5303 13.4697C19.2374 13.1768 18.7626 13.1768 18.4697 13.4697L12.75 19.1893L12.75 3Z" fill="#41416E"/>
</g>
<defs>
<clipPath id="clip0_501_26446">
<rect width="24" height="24" fill="white"/>
</clipPath>
</defs>
</svg>
