<svg width="24" height="24" viewBox="0 0 24 24" fill="none" xmlns="http://www.w3.org/2000/svg">
<g clip-path="url(#clip0_501_26440)">
<path d="M7.53033 8.53033C7.82322 8.23744 7.82322 7.76256 7.53033 7.46967C7.23744 7.17678 6.76256 7.17678 6.46967 7.46967L2.46967 11.4697C2.32322 11.6161 2.25 11.8081 2.25 12C2.25 12.1017 2.27024 12.1987 2.30691 12.2871C2.34351 12.3755 2.39776 12.4584 2.46967 12.5303L6.46967 16.5303C6.76256 16.8232 7.23744 16.8232 7.53033 16.5303C7.82322 16.2374 7.82322 15.7626 7.53033 15.4697L4.81066 12.75H21C21.4142 12.75 21.75 12.4142 21.75 12C21.75 11.5858 21.4142 11.25 21 11.25H4.81066L7.53033 8.53033Z" fill="#41416E"/>
</g>
<defs>
<clipPath id="clip0_501_26440">
<rect width="24" height="24" fill="white"/>
</clipPath>
</defs>
</svg>
