<svg width="24" height="24" viewBox="0 0 24 24" fill="none" xmlns="http://www.w3.org/2000/svg">
<g clip-path="url(#clip0_501_26439)">
<path d="M16.4697 15.4697C16.1768 15.7626 16.1768 16.2374 16.4697 16.5303C16.7626 16.8232 17.2374 16.8232 17.5303 16.5303L21.5303 12.5303C21.8232 12.2374 21.8232 11.7626 21.5303 11.4697L17.5303 7.46967C17.2374 7.17678 16.7626 7.17678 16.4697 7.46967C16.1768 7.76256 16.1768 8.23744 16.4697 8.53033L19.1893 11.25L3 11.25C2.58579 11.25 2.25 11.5858 2.25 12C2.25 12.4142 2.58579 12.75 3 12.75L19.1893 12.75L16.4697 15.4697Z" fill="#41416E"/>
</g>
<defs>
<clipPath id="clip0_501_26439">
<rect width="24" height="24" fill="white"/>
</clipPath>
</defs>
</svg>
