<svg width="24" height="24" viewBox="0 0 24 24" fill="none" xmlns="http://www.w3.org/2000/svg">
<g clip-path="url(#clip0_501_26831)">
<path fill-rule="evenodd" clip-rule="evenodd" d="M16.7435 5.75H17.8052C20.0073 5.75 21.8447 7.43207 22.0387 9.62564L22.7903 18.1256C23.0101 20.6109 21.0518 22.75 18.5568 22.75H5.45315C2.95817 22.75 0.999896 20.6109 1.21967 18.1256L1.97132 9.62563C2.1653 7.43207 4.00268 5.75 6.2048 5.75H7.25647C7.38647 3.24286 9.46051 1.25 12 1.25C14.5395 1.25 16.6135 3.24286 16.7435 5.75ZM15.2405 5.75C15.1129 4.07189 13.7108 2.75 12 2.75C10.2892 2.75 8.88713 4.07189 8.75947 5.75H15.2405ZM8 11.5C8.55228 11.5 9 11.0523 9 10.5C9 9.94772 8.55228 9.5 8 9.5C7.44772 9.5 7 9.94772 7 10.5C7 11.0523 7.44772 11.5 8 11.5ZM17 10.5C17 11.0523 16.5523 11.5 16 11.5C15.4477 11.5 15 11.0523 15 10.5C15 9.94772 15.4477 9.5 16 9.5C16.5523 9.5 17 9.94772 17 10.5Z" fill="#41416E"/>
</g>
<defs>
<clipPath id="clip0_501_26831">
<rect width="24" height="24" fill="white"/>
</clipPath>
</defs>
</svg>
