<svg width="24" height="24" viewBox="0 0 24 24" fill="none" xmlns="http://www.w3.org/2000/svg">
<g clip-path="url(#clip0_501_26807)">
<path d="M3.5 1.25C2.25736 1.25 1.25 2.25736 1.25 3.5V8.5C1.25 9.74264 2.25736 10.75 3.5 10.75H8.5C9.74264 10.75 10.75 9.74264 10.75 8.5V3.5C10.75 2.25736 9.74264 1.25 8.5 1.25H3.5Z" fill="#41416E"/>
<path d="M15.5 1.25C14.2574 1.25 13.25 2.25736 13.25 3.5V8.5C13.25 9.74264 14.2574 10.75 15.5 10.75H20.5C21.7426 10.75 22.75 9.74264 22.75 8.5V3.5C22.75 2.25736 21.7426 1.25 20.5 1.25H15.5Z" fill="#41416E"/>
<path d="M15.5 13.25C14.2574 13.25 13.25 14.2574 13.25 15.5V20.5C13.25 21.7426 14.2574 22.75 15.5 22.75H20.5C21.7426 22.75 22.75 21.7426 22.75 20.5V15.5C22.75 14.2574 21.7426 13.25 20.5 13.25H15.5Z" fill="#41416E"/>
<path d="M3.5 13.25C2.25736 13.25 1.25 14.2574 1.25 15.5V20.5C1.25 21.7426 2.25736 22.75 3.5 22.75H8.5C9.74264 22.75 10.75 21.7426 10.75 20.5V15.5C10.75 14.2574 9.74264 13.25 8.5 13.25H3.5Z" fill="#41416E"/>
</g>
<defs>
<clipPath id="clip0_501_26807">
<rect width="24" height="24" fill="white"/>
</clipPath>
</defs>
</svg>
