<svg width="24" height="24" viewBox="0 0 24 24" fill="none" xmlns="http://www.w3.org/2000/svg">
<g clip-path="url(#clip0_501_26909)">
<path fill-rule="evenodd" clip-rule="evenodd" d="M12 1.25C6.06294 1.25 1.25 6.06294 1.25 12C1.25 15.2811 2.72 18.219 5.03736 20.1908C6.91313 21.7868 9.34409 22.75 12 22.75C14.6464 22.75 17.0695 21.7937 18.9425 20.2079C21.2715 18.236 22.75 15.2907 22.75 12C22.75 6.06294 17.9371 1.25 12 1.25ZM5.77687 18.8437C7.13975 16.9317 9.54217 16.0424 11.9799 16.0424C14.4268 16.0424 16.8392 16.939 18.1988 18.8658C16.5585 20.3477 14.3846 21.25 12 21.25C9.60356 21.25 7.41997 20.3387 5.77687 18.8437ZM12 6.75C9.92877 6.75 8.25 8.42941 8.25 10.5007C8.25 12.572 9.92877 14.2514 12 14.2514C14.0712 14.2514 15.75 12.572 15.75 10.5007C15.75 8.42941 14.0712 6.75 12 6.75Z" fill="#41416E"/>
</g>
<defs>
<clipPath id="clip0_501_26909">
<rect width="24" height="24" fill="white"/>
</clipPath>
</defs>
</svg>
