<svg width="24" height="24" viewBox="0 0 24 24" fill="none" xmlns="http://www.w3.org/2000/svg">
<g clip-path="url(#clip0_501_26998)">
<path fill-rule="evenodd" clip-rule="evenodd" d="M9.53832 2.00673C11.0259 1.00264 12.9741 1.00264 14.4617 2.00673L20.4372 6.04023C21.8833 7.01632 22.75 8.64701 22.75 10.3917V18.5C22.75 20.8472 20.8472 22.75 18.5 22.75H5.5C3.15279 22.75 1.25 20.8472 1.25 18.5V10.3917C1.25 8.64701 2.1167 7.01632 3.56277 6.04022L9.53832 2.00673ZM9.44382 15.3954C9.10989 15.1503 8.64051 15.2224 8.39542 15.5563C8.15034 15.8902 8.22236 16.3596 8.55628 16.6047C10.637 18.1318 13.3631 18.1318 15.4438 16.6047C15.7777 16.3596 15.8498 15.8902 15.6047 15.5563C15.3596 15.2224 14.8902 15.1503 14.5563 15.3954C13.0037 16.5349 10.9964 16.5349 9.44382 15.3954Z" fill="#41416E"/>
</g>
<defs>
<clipPath id="clip0_501_26998">
<rect width="24" height="24" fill="white"/>
</clipPath>
</defs>
</svg>
