<svg width="24" height="24" viewBox="0 0 24 24" fill="none" xmlns="http://www.w3.org/2000/svg">
<g clip-path="url(#clip0_501_26990)">
<path d="M7.89333 2.25C3.85795 2.25 1.25 5.6858 1.25 9.47438C1.25 13.0441 3.43367 16.1115 5.75233 18.2373C6.92266 19.3103 8.1591 20.1738 9.24061 20.7729C9.78127 21.0724 10.2925 21.3111 10.7454 21.4768C11.1831 21.6369 11.6221 21.75 12 21.75C12.3779 21.75 12.8169 21.6369 13.2546 21.4768C13.7075 21.3111 14.2187 21.0724 14.7594 20.7729C15.8409 20.1738 17.0773 19.3103 18.2477 18.2373C20.5663 16.1115 22.75 13.0441 22.75 9.47438C22.75 5.6858 20.1421 2.25 16.1067 2.25C14.2498 2.25 12.9032 3.0125 12 3.8429C11.0968 3.0125 9.75021 2.25 7.89333 2.25Z" fill="#41416E"/>
</g>
<defs>
<clipPath id="clip0_501_26990">
<rect width="24" height="24" fill="white"/>
</clipPath>
</defs>
</svg>
