<svg width="24" height="24" viewBox="0 0 24 24" fill="none" xmlns="http://www.w3.org/2000/svg">
<g clip-path="url(#clip0_501_26555)">
<path fill-rule="evenodd" clip-rule="evenodd" d="M1.25 3.5C1.25 2.25736 2.25736 1.25 3.5 1.25H8.5C9.74264 1.25 10.75 2.25736 10.75 3.5V8.5C10.75 9.74264 9.74264 10.75 8.5 10.75H3.5C2.25736 10.75 1.25 9.74264 1.25 8.5V3.5ZM3.5 2.75C3.08579 2.75 2.75 3.08579 2.75 3.5V8.5C2.75 8.91421 3.08579 9.25 3.5 9.25H8.5C8.91421 9.25 9.25 8.91421 9.25 8.5V3.5C9.25 3.08579 8.91421 2.75 8.5 2.75H3.5Z" fill="#41416E"/>
<path fill-rule="evenodd" clip-rule="evenodd" d="M15.5 1.25C14.2574 1.25 13.25 2.25736 13.25 3.5V8.5C13.25 9.74264 14.2574 10.75 15.5 10.75H20.5C21.7426 10.75 22.75 9.74264 22.75 8.5V3.5C22.75 2.25736 21.7426 1.25 20.5 1.25H15.5ZM14.75 3.5C14.75 3.08579 15.0858 2.75 15.5 2.75H20.5C20.9142 2.75 21.25 3.08579 21.25 3.5V8.5C21.25 8.91421 20.9142 9.25 20.5 9.25H15.5C15.0858 9.25 14.75 8.91421 14.75 8.5V3.5Z" fill="#41416E"/>
<path fill-rule="evenodd" clip-rule="evenodd" d="M15.5 13.25C14.2574 13.25 13.25 14.2574 13.25 15.5V20.5C13.25 21.7426 14.2574 22.75 15.5 22.75H20.5C21.7426 22.75 22.75 21.7426 22.75 20.5V15.5C22.75 14.2574 21.7426 13.25 20.5 13.25H15.5ZM14.75 15.5C14.75 15.0858 15.0858 14.75 15.5 14.75H20.5C20.9142 14.75 21.25 15.0858 21.25 15.5V20.5C21.25 20.9142 20.9142 21.25 20.5 21.25H15.5C15.0858 21.25 14.75 20.9142 14.75 20.5V15.5Z" fill="#41416E"/>
<path fill-rule="evenodd" clip-rule="evenodd" d="M3.5 13.25C2.25736 13.25 1.25 14.2574 1.25 15.5V20.5C1.25 21.7426 2.25736 22.75 3.5 22.75H8.5C9.74264 22.75 10.75 21.7426 10.75 20.5V15.5C10.75 14.2574 9.74264 13.25 8.5 13.25H3.5ZM2.75 15.5C2.75 15.0858 3.08579 14.75 3.5 14.75H8.5C8.91421 14.75 9.25 15.0858 9.25 15.5V20.5C9.25 20.9142 8.91421 21.25 8.5 21.25H3.5C3.08579 21.25 2.75 20.9142 2.75 20.5V15.5Z" fill="#41416E"/>
</g>
<defs>
<clipPath id="clip0_501_26555">
<rect width="24" height="24" fill="white"/>
</clipPath>
</defs>
</svg>
