<svg width="24" height="24" viewBox="0 0 24 24" fill="none" xmlns="http://www.w3.org/2000/svg">
<g clip-path="url(#clip0_501_26304)">
<path fill-rule="evenodd" clip-rule="evenodd" d="M7.89333 3.75C4.87317 3.75 2.75 6.3142 2.75 9.47438C2.75 12.4307 4.57855 15.1262 6.76601 17.1317C7.84873 18.1243 8.98882 18.9186 9.96751 19.4608C10.457 19.732 10.8967 19.9349 11.2608 20.0681C11.6401 20.2069 11.884 20.25 12 20.25C12.116 20.25 12.3599 20.2069 12.7392 20.0681C13.1033 19.9349 13.543 19.732 14.0325 19.4608C15.0112 18.9186 16.1513 18.1243 17.234 17.1317C19.4215 15.1262 21.25 12.4307 21.25 9.47438C21.25 6.3142 19.1268 3.75 16.1067 3.75C14.3744 3.75 13.2429 4.61528 12.5731 5.40871C12.4306 5.57749 12.2209 5.67488 12 5.67488C11.7791 5.67488 11.5694 5.57749 11.4269 5.40871C10.757 4.61528 9.62556 3.75 7.89333 3.75ZM1.25 9.47438C1.25 5.6858 3.85795 2.25 7.89333 2.25C9.75021 2.25 11.0968 3.0125 12 3.8429C12.9032 3.0125 14.2498 2.25 16.1067 2.25C20.1421 2.25 22.75 5.6858 22.75 9.47438C22.75 13.0441 20.5663 16.1115 18.2477 18.2373C17.0773 19.3103 15.8409 20.1738 14.7594 20.7729C14.2187 21.0724 13.7075 21.3111 13.2546 21.4768C12.8169 21.6369 12.3779 21.75 12 21.75C11.6221 21.75 11.1831 21.6369 10.7454 21.4768C10.2925 21.3111 9.78127 21.0724 9.24061 20.7729C8.1591 20.1738 6.92266 19.3103 5.75233 18.2373C3.43367 16.1115 1.25 13.0441 1.25 9.47438Z" fill="#41416E"/>
</g>
<defs>
<clipPath id="clip0_501_26304">
<rect width="24" height="24" fill="white"/>
</clipPath>
</defs>
</svg>
