<svg width="24" height="24" viewBox="0 0 24 24" fill="none" xmlns="http://www.w3.org/2000/svg">
<g clip-path="url(#clip0_501_26397)">
<path d="M9.44382 15.3954C9.10989 15.1503 8.64051 15.2224 8.39542 15.5563C8.15034 15.8902 8.22236 16.3596 8.55628 16.6047C10.637 18.1318 13.3631 18.1318 15.4438 16.6047C15.7777 16.3596 15.8498 15.8902 15.6047 15.5563C15.3596 15.2224 14.8902 15.1503 14.5563 15.3954C13.0037 16.5349 10.9964 16.5349 9.44382 15.3954Z" fill="#41416E"/>
<path fill-rule="evenodd" clip-rule="evenodd" d="M14.4617 2.00673C12.9741 1.00264 11.0259 1.00264 9.53832 2.00673L3.56277 6.04022C2.1167 7.01632 1.25 8.64701 1.25 10.3917V18.5C1.25 20.8472 3.15279 22.75 5.5 22.75H18.5C20.8472 22.75 22.75 20.8472 22.75 18.5V10.3917C22.75 8.64701 21.8833 7.01632 20.4372 6.04023L14.4617 2.00673ZM10.3775 3.25C11.358 2.58822 12.642 2.58822 13.6225 3.25L19.598 7.2835C20.6309 7.98071 21.25 9.14549 21.25 10.3917V18.5C21.25 20.0187 20.0188 21.25 18.5 21.25H5.5C3.98122 21.25 2.75 20.0187 2.75 18.5V10.3917C2.75 9.14549 3.36907 7.98071 4.40198 7.2835L10.3775 3.25Z" fill="#41416E"/>
</g>
<defs>
<clipPath id="clip0_501_26397">
<rect width="24" height="24" fill="white"/>
</clipPath>
</defs>
</svg>
