<svg width="24" height="24" viewBox="0 0 24 24" fill="none" xmlns="http://www.w3.org/2000/svg">
<g clip-path="url(#clip0_501_26615)">
<path fill-rule="evenodd" clip-rule="evenodd" d="M12 6.75C9.9288 6.75 8.25003 8.42941 8.25003 10.5007C8.25003 12.572 9.9288 14.2514 12 14.2514C14.0713 14.2514 15.75 12.572 15.75 10.5007C15.75 8.42941 14.0713 6.75 12 6.75ZM9.75003 10.5007C9.75003 9.25751 10.7576 8.25 12 8.25C13.2425 8.25 14.25 9.25751 14.25 10.5007C14.25 11.7439 13.2425 12.7514 12 12.7514C10.7576 12.7514 9.75003 11.7439 9.75003 10.5007Z" fill="#41416E"/>
<path fill-rule="evenodd" clip-rule="evenodd" d="M1.25 12C1.25 6.06294 6.06294 1.25 12 1.25C17.9371 1.25 22.75 6.06294 22.75 12C22.75 17.9371 17.9371 22.75 12 22.75C6.06294 22.75 1.25 17.9371 1.25 12ZM12 2.75C6.89137 2.75 2.75 6.89137 2.75 12C2.75 14.7122 3.91729 17.1518 5.77688 18.8437C7.13976 16.9317 9.54219 16.0424 11.9799 16.0424C14.4268 16.0424 16.8393 16.939 18.1988 18.8658C20.0725 17.173 21.25 14.724 21.25 12C21.25 6.89137 17.1086 2.75 12 2.75ZM12 21.25C10.1436 21.25 8.41493 20.7031 6.96629 19.7617C7.96508 18.3278 9.83183 17.5424 11.9799 17.5424C14.1371 17.5424 16.0096 18.3339 17.0059 19.7797C15.563 20.7101 13.8445 21.25 12 21.25Z" fill="#41416E"/>
</g>
<defs>
<clipPath id="clip0_501_26615">
<rect width="24" height="24" fill="white"/>
</clipPath>
</defs>
</svg>
