<svg width="24" height="24" viewBox="0 0 24 24" fill="none" xmlns="http://www.w3.org/2000/svg">
<g clip-path="url(#clip0_501_26392)">
<path fill-rule="evenodd" clip-rule="evenodd" d="M3.34612 2.01412C4.47678 0.883453 6.34927 1.02678 7.29467 2.31636L9.82792 5.77184C10.633 6.87006 10.5166 8.3914 9.55369 9.35428C9.06194 9.84604 9.06194 10.6433 9.55369 11.1351L12.8649 14.4463C13.3567 14.9381 14.154 14.9381 14.6457 14.4463C15.6086 13.4834 17.1299 13.367 18.2282 14.1721L21.6836 16.7053C22.9732 17.6507 23.1166 19.5232 21.9859 20.6539L21.7416 20.8982C20.2009 22.4388 17.9756 23.0776 15.8524 22.5886C13.9688 22.1548 12.1894 21.3533 10.6164 20.2301L9.52667 19.4519C7.60356 18.0788 5.92125 16.3964 4.54806 14.4733L3.76994 13.3836C2.64672 11.8106 1.84521 10.0312 1.4114 8.14763C0.922409 6.02444 1.56116 3.79907 3.10179 2.25845L3.34612 2.01412ZM6.08494 3.20323C5.68314 2.65515 4.88732 2.59424 4.40678 3.07478L4.16245 3.31911C2.98736 4.49419 2.50017 6.19155 2.87313 7.81098C3.26261 9.50209 3.98223 11.0996 4.99068 12.5119L5.7688 13.6017C7.0457 15.3899 8.61006 16.9543 10.3983 18.2312L11.4881 19.0093C12.9004 20.0178 14.4979 20.7374 16.189 21.1269C17.8085 21.4998 19.5058 21.0126 20.6809 19.8376L20.9252 19.5932C21.4058 19.1127 21.3449 18.3169 20.7968 17.9151L17.3413 15.3818C16.8401 15.0144 16.1458 15.0675 15.7064 15.507C14.6288 16.5845 12.8818 16.5845 11.8043 15.507L8.49303 12.1958C7.41549 11.1182 7.41549 9.37117 8.49303 8.29362C8.93246 7.8542 8.98561 7.1599 8.61818 6.65871L6.08494 3.20323Z" fill="#41416E"/>
</g>
<defs>
<clipPath id="clip0_501_26392">
<rect width="24" height="24" fill="white"/>
</clipPath>
</defs>
</svg>
