<svg width="24" height="24" viewBox="0 0 24 24" fill="none" xmlns="http://www.w3.org/2000/svg">
<g clip-path="url(#clip0_501_26298)">
<path d="M10.9405 7.54634C10.991 7.13521 11.3652 6.84285 11.7763 6.89333L15.2715 7.32248C15.6826 7.37296 15.9749 7.74716 15.9245 8.15829C15.874 8.56942 15.4998 8.86178 15.0887 8.8113L11.5935 8.38215C11.1824 8.33167 10.89 7.95747 10.9405 7.54634Z" fill="#41416E"/>
<path d="M10.4501 11.5408C10.5006 11.1296 10.8748 10.8373 11.2859 10.8877L17.2775 11.6234C17.6886 11.6739 17.981 12.0481 17.9305 12.4592C17.88 12.8704 17.5058 13.1627 17.0947 13.1122L11.1031 12.3766C10.692 12.3261 10.3996 11.9519 10.4501 11.5408Z" fill="#41416E"/>
<path d="M9.95962 15.5352C10.0101 15.124 10.3843 14.8317 10.7954 14.8822L16.7871 15.6178C17.1982 15.6683 17.4905 16.0425 17.4401 16.4536C17.3896 16.8648 17.0154 17.1571 16.6043 17.1067L10.6126 16.371C10.2015 16.3205 9.90914 15.9463 9.95962 15.5352Z" fill="#41416E"/>
<path fill-rule="evenodd" clip-rule="evenodd" d="M7.25243 4.55938C7.50606 2.49371 9.38622 1.02477 11.4519 1.2784L19.4407 2.2593C21.5064 2.51294 22.9753 4.3931 22.7217 6.45877L21.1277 19.4406C20.8741 21.5063 18.9939 22.9752 16.9283 22.7216L8.93944 21.7407C7.92154 21.6157 7.04854 21.0958 6.45515 20.3533C4.43919 20.5508 2.62811 19.0979 2.38072 17.0747L1.2782 8.05768C1.02702 6.00342 2.48173 4.12863 4.53475 3.8755C4.94585 3.82481 5.32021 4.11698 5.37089 4.52808C5.42158 4.93918 5.12941 5.31353 4.71831 5.36422C3.49259 5.51535 2.61571 6.63738 2.76711 7.87563L3.86963 16.8927C3.99391 17.9091 4.77155 18.6808 5.72415 18.8406C5.62931 18.4258 5.60362 17.9879 5.65846 17.5412L7.25243 4.55938ZM11.2691 2.76722C10.0257 2.61455 8.89392 3.49877 8.74125 4.74218L7.14728 17.724C6.9946 18.9675 7.87883 20.0992 9.12224 20.2519L17.1111 21.2328C18.3545 21.3855 19.4862 20.5012 19.6389 19.2578L21.2329 6.27596C21.3856 5.03255 20.5013 3.9008 19.2579 3.74812L11.2691 2.76722Z" fill="#41416E"/>
</g>
<defs>
<clipPath id="clip0_501_26298">
<rect width="24" height="24" fill="white"/>
</clipPath>
</defs>
</svg>
