<svg width="24" height="24" viewBox="0 0 24 24" fill="none" xmlns="http://www.w3.org/2000/svg">
<g clip-path="url(#clip0_501_26351)">
<path d="M12 4.25C11.5858 4.25 11.25 3.91421 11.25 3.5V2C11.25 1.58579 11.5858 1.25 12 1.25C12.4142 1.25 12.75 1.58579 12.75 2V3.5C12.75 3.91421 12.4142 4.25 12 4.25Z" fill="#41416E"/>
<path d="M20.0303 4.96967C20.3232 5.26256 20.3232 5.73744 20.0303 6.03033L19.0303 7.03033C18.7374 7.32322 18.2626 7.32322 17.9697 7.03033C17.6768 6.73744 17.6768 6.26256 17.9697 5.96967L18.9697 4.96967C19.2626 4.67678 19.7374 4.67678 20.0303 4.96967Z" fill="#41416E"/>
<path fill-rule="evenodd" clip-rule="evenodd" d="M5.75 12C5.75 8.54822 8.54822 5.75 12 5.75C15.4518 5.75 18.25 8.54822 18.25 12C18.25 15.4518 15.4518 18.25 12 18.25C8.54822 18.25 5.75 15.4518 5.75 12ZM12 7.25C9.37665 7.25 7.25 9.37665 7.25 12C7.25 14.6234 9.37665 16.75 12 16.75C14.6234 16.75 16.75 14.6234 16.75 12C16.75 9.37665 14.6234 7.25 12 7.25Z" fill="#41416E"/>
<path d="M22.75 12C22.75 12.4142 22.4142 12.75 22 12.75H20.5C20.0858 12.75 19.75 12.4142 19.75 12C19.75 11.5858 20.0858 11.25 20.5 11.25H22C22.4142 11.25 22.75 11.5858 22.75 12Z" fill="#41416E"/>
<path d="M2 12.75C1.58579 12.75 1.25 12.4142 1.25 12C1.25 11.5858 1.58579 11.25 2 11.25H3.5C3.91421 11.25 4.25 11.5858 4.25 12C4.25 12.4142 3.91421 12.75 3.5 12.75H2Z" fill="#41416E"/>
<path d="M3.96966 6.03033C3.67677 5.73744 3.67677 5.26256 3.96966 4.96967C4.26255 4.67678 4.73743 4.67678 5.03032 4.96967L6.03032 5.96967C6.32321 6.26256 6.32321 6.73744 6.03032 7.03033C5.73743 7.32322 5.26255 7.32322 4.96966 7.03033L3.96966 6.03033Z" fill="#41416E"/>
<path d="M20.0303 19.0303C19.7374 19.3232 19.2626 19.3232 18.9697 19.0303L17.9697 18.0303C17.6768 17.7374 17.6768 17.2626 17.9697 16.9697C18.2626 16.6768 18.7374 16.6768 19.0303 16.9697L20.0303 17.9697C20.3232 18.2626 20.3232 18.7374 20.0303 19.0303Z" fill="#41416E"/>
<path d="M5.03032 19.0303C4.73743 19.3232 4.26255 19.3232 3.96966 19.0303C3.67677 18.7374 3.67677 18.2626 3.96966 17.9697L4.96966 16.9697C5.26255 16.6768 5.73743 16.6768 6.03032 16.9697C6.32321 17.2626 6.32321 17.7374 6.03032 18.0303L5.03032 19.0303Z" fill="#41416E"/>
<path d="M11.25 22C11.25 22.4142 11.5858 22.75 12 22.75C12.4142 22.75 12.75 22.4142 12.75 22V20.5C12.75 20.0858 12.4142 19.75 12 19.75C11.5858 19.75 11.25 20.0858 11.25 20.5V22Z" fill="#41416E"/>
</g>
<defs>
<clipPath id="clip0_501_26351">
<rect width="24" height="24" fill="white"/>
</clipPath>
</defs>
</svg>
