<svg width="24" height="24" viewBox="0 0 24 24" fill="none" xmlns="http://www.w3.org/2000/svg">
<g clip-path="url(#clip0_501_26386)">
<path d="M6.45004 8.40001C6.11867 8.15149 5.64857 8.21864 5.40004 8.55001C5.15152 8.88138 5.21867 9.35149 5.55004 9.60001L10.05 12.975C11.2056 13.8417 12.7945 13.8417 13.95 12.975L18.45 9.60001C18.7814 9.35149 18.8486 8.88138 18.6 8.55001C18.3515 8.21864 17.8814 8.15149 17.55 8.40001L13.05 11.775C12.4278 12.2417 11.5723 12.2417 10.95 11.775L6.45004 8.40001Z" fill="#41416E"/>
<path fill-rule="evenodd" clip-rule="evenodd" d="M5.5 2.75C3.15279 2.75 1.25 4.65279 1.25 7V17C1.25 19.3472 3.15279 21.25 5.5 21.25H18.5C20.8472 21.25 22.75 19.3472 22.75 17V7C22.75 4.65279 20.8472 2.75 18.5 2.75H5.5ZM2.75 7C2.75 5.48122 3.98122 4.25 5.5 4.25H18.5C20.0188 4.25 21.25 5.48122 21.25 7V17C21.25 18.5188 20.0188 19.75 18.5 19.75H5.5C3.98122 19.75 2.75 18.5188 2.75 17V7Z" fill="#41416E"/>
</g>
<defs>
<clipPath id="clip0_501_26386">
<rect width="24" height="24" fill="white"/>
</clipPath>
</defs>
</svg>
