<svg width="24" height="24" viewBox="0 0 24 24" fill="none" xmlns="http://www.w3.org/2000/svg">
<g clip-path="url(#clip0_501_26511)">
<path fill-rule="evenodd" clip-rule="evenodd" d="M2.53033 1.46967C2.23744 1.17678 1.76256 1.17678 1.46967 1.46967C1.17678 1.76256 1.17678 2.23744 1.46967 2.53033L4.81119 5.87185C3.37287 7.09756 2.1974 8.74666 1.45739 10.8072C1.18087 11.5772 1.18087 12.4229 1.45739 13.1928C4.12942 20.633 12.3794 22.5781 17.9683 19.029L21.4697 22.5303C21.7626 22.8232 22.2374 22.8232 22.5303 22.5303C22.8232 22.2374 22.8232 21.7626 22.5303 21.4697L18.6662 17.6055C18.6226 17.5476 18.5722 17.4977 18.5169 17.4562L2.53033 1.46967ZM16.8774 17.938L14.4862 15.5469C13.7829 16.0403 12.9251 16.3299 11.9999 16.3299C9.60571 16.3299 7.66992 14.3941 7.66992 11.9999C7.66992 11.0748 7.95958 10.217 8.45293 9.51359L5.87576 6.93642C4.59715 7.99813 3.53749 9.45311 2.86911 11.3142C2.7103 11.7564 2.7103 12.2436 2.86911 12.6858C5.14418 19.0207 12.0453 20.7717 16.8774 17.938ZM9.53871 10.5994C9.30383 11.0119 9.16992 11.4895 9.16992 11.9999C9.16992 13.5657 10.4341 14.8299 11.9999 14.8299C12.5103 14.8299 12.9879 14.696 13.4005 14.4611L9.53871 10.5994Z" fill="#41416E"/>
<path d="M21.1309 11.3142C19.1148 5.70041 13.4782 3.69016 8.85155 5.27072C8.45957 5.40462 8.03327 5.19542 7.89936 4.80345C7.76545 4.41147 7.97466 3.98517 8.36663 3.85126C13.6971 2.03025 20.2247 4.35315 22.5426 10.8072C22.8191 11.5772 22.8191 12.4229 22.5426 13.1928C22.0814 14.4769 21.4506 15.6029 20.6903 16.567C20.4338 16.8922 19.9622 16.9479 19.637 16.6915C19.3117 16.435 19.256 15.9634 19.5125 15.6381C20.17 14.8044 20.723 13.8215 21.1309 12.6858C21.2897 12.2436 21.2897 11.7564 21.1309 11.3142Z" fill="#41416E"/>
<path d="M11.7572 8.35099C11.8143 7.94073 12.1932 7.65446 12.6034 7.71158C14.5318 7.98008 16.0493 9.51244 16.2951 11.4481C16.3473 11.859 16.0565 12.2344 15.6456 12.2866C15.2347 12.3388 14.8593 12.048 14.8071 11.6371C14.6467 10.3741 13.6549 9.37245 12.3966 9.19725C11.9863 9.14013 11.7 8.76124 11.7572 8.35099Z" fill="#41416E"/>
</g>
<defs>
<clipPath id="clip0_501_26511">
<rect width="24" height="24" fill="white"/>
</clipPath>
</defs>
</svg>
