<svg width="24" height="24" viewBox="0 0 24 24" fill="none" xmlns="http://www.w3.org/2000/svg">
<g clip-path="url(#clip0_501_26465)">
<path fill-rule="evenodd" clip-rule="evenodd" d="M11.9999 7.77979C9.60571 7.77979 7.66992 9.71557 7.66992 12.1098C7.66992 14.504 9.60571 16.4398 11.9999 16.4398C14.3941 16.4398 16.3299 14.504 16.3299 12.1098C16.3299 9.71557 14.3941 7.77979 11.9999 7.77979ZM9.16992 12.1098C9.16992 10.544 10.4341 9.27979 11.9999 9.27979C13.5657 9.27979 14.8299 10.544 14.8299 12.1098C14.8299 13.6756 13.5657 14.9398 11.9999 14.9398C10.4341 14.9398 9.16992 13.6756 9.16992 12.1098Z" fill="#41416E"/>
<path fill-rule="evenodd" clip-rule="evenodd" d="M22.5426 10.9171C18.9239 0.840797 5.07613 0.840798 1.45739 10.9171C1.18087 11.687 1.18087 12.5327 1.45739 13.3027C5.07613 23.3789 18.9239 23.3789 22.5426 13.3027C22.8191 12.5327 22.8191 11.687 22.5426 10.9171ZM2.86911 11.4241C6.01235 2.6718 17.9876 2.6718 21.1309 11.4241C21.2897 11.8663 21.2897 12.3535 21.1309 12.7957C17.9876 21.5479 6.01235 21.5479 2.86911 12.7957C2.7103 12.3535 2.7103 11.8663 2.86911 11.4241Z" fill="#41416E"/>
</g>
<defs>
<clipPath id="clip0_501_26465">
<rect width="24" height="24" fill="white"/>
</clipPath>
</defs>
</svg>
