<svg width="24" height="24" viewBox="0 0 24 24" fill="none" xmlns="http://www.w3.org/2000/svg">
<g clip-path="url(#clip0_501_26520)">
<path d="M11 16.5C11 15.9477 11.4477 15.5 12 15.5C12.5523 15.5 13 15.9477 13 16.5C13 17.0523 12.5523 17.5 12 17.5C11.4477 17.5 11 17.0523 11 16.5Z" fill="#41416E"/>
<path d="M10.25 9.5C10.25 8.5335 11.0335 7.75 12 7.75C12.9665 7.75 13.75 8.5335 13.75 9.5C13.75 9.98836 13.5509 10.4289 13.2277 10.7471C13.1942 10.7801 13.1145 10.8352 12.9129 10.9521L12.8541 10.9862C12.6884 11.0818 12.4699 11.2079 12.264 11.359C11.7735 11.7188 11.25 12.2981 11.25 13.25C11.25 13.6642 11.5858 14 12 14C12.4142 14 12.75 13.6642 12.75 13.25C12.75 12.9519 12.8778 12.7691 13.1514 12.5683C13.2868 12.4689 13.4322 12.3848 13.606 12.2842L13.6702 12.2469C13.8398 12.1485 14.0895 12.0037 14.28 11.816C14.8779 11.2274 15.25 10.4065 15.25 9.5C15.25 7.70507 13.7949 6.25 12 6.25C10.2051 6.25 8.75 7.70507 8.75 9.5C8.75 9.87851 8.81502 10.2435 8.93512 10.5833C9.07316 10.9738 9.50165 11.1785 9.89219 11.0405C10.2827 10.9024 10.4874 10.4739 10.3494 10.0834C10.2852 9.90191 10.25 9.70588 10.25 9.5Z" fill="#41416E"/>
<path fill-rule="evenodd" clip-rule="evenodd" d="M1.25 12C1.25 6.06294 6.06294 1.25 12 1.25C17.9371 1.25 22.75 6.06294 22.75 12C22.75 17.9371 17.9371 22.75 12 22.75C6.06294 22.75 1.25 17.9371 1.25 12ZM12 2.75C6.89137 2.75 2.75 6.89137 2.75 12C2.75 17.1086 6.89137 21.25 12 21.25C17.1086 21.25 21.25 17.1086 21.25 12C21.25 6.89137 17.1086 2.75 12 2.75Z" fill="#41416E"/>
</g>
<defs>
<clipPath id="clip0_501_26520">
<rect width="24" height="24" fill="white"/>
</clipPath>
</defs>
</svg>
