<svg width="24" height="24" viewBox="0 0 24 24" fill="none" xmlns="http://www.w3.org/2000/svg">
<g clip-path="url(#clip0_501_26363)">
<path d="M21.4429 2.76937C20.6142 1.34567 19.6796 1.24184 17.7985 1.27179H6.21599C3.29941 1.06712 2.06628 2.29813 2.27196 5.21542C2.26697 6.42347 2.21305 7.32102 2.86307 8.20958C3.38228 8.9404 6.91294 11.667 7.66979 12.3599C8.2629 12.8431 8.27188 12.8591 8.2629 13.6258V19.5393C8.2629 20.9749 8.2629 21.6299 8.68126 22.1201C10.0043 23.3092 10.823 22.7101 12.2688 21.1976L14.831 18.6367C15.3052 18.1785 15.5429 17.8859 15.6907 17.3069C15.8155 16.7847 15.7276 14.2289 15.7526 13.6248C15.7436 12.8611 15.7526 12.8421 16.3457 12.3589L20.0401 9.27985C21.4399 8.1956 21.8054 7.40887 21.7435 5.63973C21.7395 4.54151 21.7854 3.32947 21.4439 2.76837L21.4429 2.76937ZM20.2448 5.64073C20.2607 7.07641 20.1918 7.22517 19.0765 8.1337L15.3851 11.2097C14.4935 11.8886 14.2049 12.5076 14.2538 13.6258C14.2438 13.9763 14.2788 16.6829 14.2339 16.9584C14.148 17.248 14.0711 17.2639 13.7706 17.5784C13.0956 18.2114 10.6213 20.8252 10.0292 21.2355C9.94934 21.2435 9.87146 21.2086 9.84151 21.1786C9.66078 20.3899 9.80456 14.6472 9.76063 13.6268C9.77161 12.891 9.72568 12.4597 9.35125 11.9126C9.01376 11.4114 5.45015 8.61193 4.93393 8.13171C3.82162 7.22717 3.75372 7.07541 3.7697 5.64173C3.77269 4.87796 3.74673 3.63597 3.90649 3.45027C4.46065 2.59665 5 2.76937 6.21599 2.76937H17.7985C20.3895 2.63759 20.2717 3.3105 20.2448 5.64073Z" fill="#41416E"/>
</g>
<defs>
<clipPath id="clip0_501_26363">
<rect width="24" height="24" fill="white"/>
</clipPath>
</defs>
</svg>
