<svg width="24" height="24" viewBox="0 0 24 24" fill="none" xmlns="http://www.w3.org/2000/svg">
<g clip-path="url(#clip0_501_26395)">
<path fill-rule="evenodd" clip-rule="evenodd" d="M12 6.25C9.92893 6.25 8.25 7.92893 8.25 10C8.25 12.0711 9.92893 13.75 12 13.75C14.0711 13.75 15.75 12.0711 15.75 10C15.75 7.92893 14.0711 6.25 12 6.25ZM9.75 10C9.75 8.75736 10.7574 7.75 12 7.75C13.2426 7.75 14.25 8.75736 14.25 10C14.25 11.2426 13.2426 12.25 12 12.25C10.7574 12.25 9.75 11.2426 9.75 10Z" fill="#41416E"/>
<path fill-rule="evenodd" clip-rule="evenodd" d="M11.9031 1.25C7.12412 1.25 3.25 5.1242 3.25 9.90319C3.25 14.401 5.61561 16.9704 7.43315 18.9445C7.60893 19.1354 7.77958 19.3207 7.94247 19.5017C8.58124 20.2115 10.0016 21.5355 10.8257 22.2933C11.4905 22.9046 12.5095 22.9046 13.1743 22.2933C13.9983 21.5354 15.4186 20.2115 16.0574 19.5017C16.2111 19.331 16.3738 19.1544 16.5428 18.971C18.3048 17.0588 20.7499 14.4051 20.7499 9.90319C20.7499 5.12416 16.8758 1.25 12.0967 1.25H11.9031ZM4.75 9.90319C4.75 5.95261 7.95256 2.75 11.9031 2.75H12.0967C16.0473 2.75 19.2499 5.95259 19.2499 9.90319C19.2499 13.7969 17.1919 16.0417 15.4297 17.9636C15.2641 18.1442 15.1009 18.3222 14.9425 18.4983C14.3616 19.1437 13.0011 20.4146 12.1589 21.1892C12.0681 21.2727 11.9318 21.2727 11.841 21.1892C10.9988 20.4146 9.63833 19.1437 9.05741 18.4983C8.88994 18.3122 8.71914 18.1258 8.54683 17.9378C6.73162 15.957 4.75 13.7946 4.75 9.90319Z" fill="#41416E"/>
</g>
<defs>
<clipPath id="clip0_501_26395">
<rect width="24" height="24" fill="white"/>
</clipPath>
</defs>
</svg>
