<svg width="24" height="24" viewBox="0 0 24 24" fill="none" xmlns="http://www.w3.org/2000/svg">
<g clip-path="url(#clip0_501_26383)">
<path d="M8.75 5.5C8.75 3.98122 9.98121 2.75 11.5 2.75H17.5C19.0188 2.75 20.25 3.98122 20.25 5.5V18.5C20.25 20.0188 19.0188 21.25 17.5 21.25H11.5C9.98121 21.25 8.75 20.0188 8.75 18.5V16C8.75 15.5858 8.41421 15.25 8 15.25C7.58578 15.25 7.25 15.5858 7.25 16V18.5C7.25 20.8472 9.15279 22.75 11.5 22.75H17.5C19.8472 22.75 21.75 20.8472 21.75 18.5V5.5C21.75 3.15279 19.8472 1.25 17.5 1.25H11.5C9.15279 1.25 7.25 3.15279 7.25 5.5V8C7.25 8.41421 7.58578 8.75 8 8.75C8.41421 8.75 8.75 8.41421 8.75 8V5.5Z" fill="#41416E"/>
<path d="M12.4697 8.46967C12.7626 8.17678 13.2374 8.17678 13.5303 8.46967L16.5303 11.4697C16.6022 11.5416 16.6565 11.6245 16.6931 11.7129C16.7298 11.8013 16.75 11.8983 16.75 12C16.75 12.1017 16.7298 12.1987 16.6931 12.2871C16.6565 12.3755 16.6022 12.4584 16.5303 12.5303L13.5303 15.5303C13.2374 15.8232 12.7626 15.8232 12.4697 15.5303C12.1768 15.2374 12.1768 14.7626 12.4697 14.4697L14.1893 12.75H2.99969C2.58548 12.75 2.24969 12.4142 2.24969 12C2.24969 11.5858 2.58548 11.25 2.99969 11.25H14.1893L12.4697 9.53033C12.1768 9.23744 12.1768 8.76256 12.4697 8.46967Z" fill="#41416E"/>
</g>
<defs>
<clipPath id="clip0_501_26383">
<rect width="24" height="24" fill="white"/>
</clipPath>
</defs>
</svg>
