<svg width="24" height="24" viewBox="0 0 24 24" fill="none" xmlns="http://www.w3.org/2000/svg">
<g clip-path="url(#clip0_501_26367)">
<path d="M8 13C7.44 13 7 12.55 7 12C7 11.45 7.45 11 8 11C8.55 11 9 11.45 9 12C9 12.55 8.56 13 8 13Z" fill="#41416E"/>
<path d="M11 12C11 12.55 11.44 13 12 13C12.56 13 13 12.55 13 12C13 11.45 12.55 11 12 11C11.45 11 11 11.45 11 12Z" fill="#41416E"/>
<path d="M15 12C15 12.55 15.44 13 16 13C16.56 13 17 12.55 17 12C17 11.45 16.55 11 16 11C15.45 11 15 11.45 15 12Z" fill="#41416E"/>
<path fill-rule="evenodd" clip-rule="evenodd" d="M12 1.25C6.06294 1.25 1.25 6.06294 1.25 12C1.25 13.9315 1.76008 15.7462 2.6534 17.3142C2.70639 17.4072 2.71002 17.4982 2.68822 17.5636L1.92094 19.8655C1.46492 21.2335 2.76646 22.5351 4.13454 22.0791L6.43638 21.3118C6.50178 21.29 6.5928 21.2936 6.6858 21.3466C8.25383 22.2399 10.0685 22.75 12 22.75C17.9371 22.75 22.75 17.9371 22.75 12C22.75 6.06294 17.9371 1.25 12 1.25ZM2.75 12C2.75 6.89137 6.89137 2.75 12 2.75C17.1086 2.75 21.25 6.89137 21.25 12C21.25 17.1086 17.1086 21.25 12 21.25C10.3357 21.25 8.77608 20.8111 7.42832 20.0433C6.99885 19.7986 6.46708 19.7204 5.96204 19.8888L3.6602 20.656C3.46476 20.7212 3.27882 20.5352 3.34397 20.3398L4.11125 18.038C4.2796 17.5329 4.20141 17.0012 3.95673 16.5717C3.18889 15.2239 2.75 13.6643 2.75 12Z" fill="#41416E"/>
</g>
<defs>
<clipPath id="clip0_501_26367">
<rect width="24" height="24" fill="white"/>
</clipPath>
</defs>
</svg>
