<svg width="24" height="24" viewBox="0 0 24 24" fill="none" xmlns="http://www.w3.org/2000/svg">
<g clip-path="url(#clip0_501_26393)">
<path d="M8 11.25C7.58579 11.25 7.25 11.5858 7.25 12C7.25 12.4142 7.58579 12.75 8 12.75H16C16.4142 12.75 16.75 12.4142 16.75 12C16.75 11.5858 16.4142 11.25 16 11.25H8Z" fill="#41416E"/>
<path d="M7.25 7.5C7.25 7.08579 7.58579 6.75 8 6.75H11.5C11.9142 6.75 12.25 7.08579 12.25 7.5C12.25 7.91421 11.9142 8.25 11.5 8.25H8C7.58579 8.25 7.25 7.91421 7.25 7.5Z" fill="#41416E"/>
<path d="M8 15.75C7.58579 15.75 7.25 16.0858 7.25 16.5C7.25 16.9142 7.58579 17.25 8 17.25H16C16.4142 17.25 16.75 16.9142 16.75 16.5C16.75 16.0858 16.4142 15.75 16 15.75H8Z" fill="#41416E"/>
<path fill-rule="evenodd" clip-rule="evenodd" d="M6.5 1.25C4.15279 1.25 2.25 3.15279 2.25 5.5V18.5C2.25 20.8472 4.15279 22.75 6.5 22.75H17.5C19.8472 22.75 21.75 20.8472 21.75 18.5V5.5C21.75 3.15279 19.8472 1.25 17.5 1.25H6.5ZM3.75 5.5C3.75 3.98122 4.98122 2.75 6.5 2.75H17.5C19.0188 2.75 20.25 3.98122 20.25 5.5V18.5C20.25 20.0188 19.0188 21.25 17.5 21.25H6.5C4.98122 21.25 3.75 20.0188 3.75 18.5V5.5Z" fill="#41416E"/>
</g>
<defs>
<clipPath id="clip0_501_26393">
<rect width="24" height="24" fill="white"/>
</clipPath>
</defs>
</svg>
