<svg width="24" height="24" viewBox="0 0 24 24" fill="none" xmlns="http://www.w3.org/2000/svg">
<g clip-path="url(#clip0_501_26526)">
<path d="M7.30775 15.9161C6.93001 15.7461 6.48601 15.9146 6.31605 16.2923C6.14609 16.67 6.31452 17.114 6.69226 17.284L8.69226 18.1839C9.06999 18.3539 9.51399 18.1854 9.68396 17.8077C9.85392 17.4299 9.68548 16.986 9.30775 16.816L7.30775 15.9161Z" fill="#41416E"/>
<path fill-rule="evenodd" clip-rule="evenodd" d="M13.7919 1.65625C12.6557 1.12793 11.3443 1.12793 10.2081 1.65624L3.70808 4.67862C2.20886 5.37572 1.25 6.87902 1.25 8.53238V15.547C1.25 17.213 2.22344 18.7254 3.73988 19.4154L10.2399 22.3729C11.3581 22.8817 12.6419 22.8817 13.7601 22.3729L20.2601 19.4154C21.7766 18.7254 22.75 17.213 22.75 15.547V8.53238C22.75 6.87902 21.7911 5.37572 20.2919 4.67862L13.7919 1.65625ZM10.8405 3.0164C11.5757 2.67455 12.4243 2.67455 13.1595 3.0164L19.6595 6.03877C20.1271 6.25622 20.5135 6.5949 20.7883 7.00725L17.8089 8.41855L8.742 3.99217L10.8405 3.0164ZM6.99079 4.80645L4.34052 6.03877C3.87287 6.25622 3.48648 6.5949 3.21167 7.00724L12 11.1701L16.0736 9.24056L6.99079 4.80645ZM2.75126 8.44892L11.2504 12.4749L11.251 21.1506C11.1185 21.113 10.9882 21.0654 10.8611 21.0076L4.3611 18.0501C3.37987 17.6036 2.75 16.625 2.75 15.547V8.53238C2.75 8.50449 2.75042 8.47667 2.75126 8.44892ZM12.751 21.15C12.8828 21.1126 13.0125 21.0651 13.1389 21.0076L19.6389 18.0501C20.6201 17.6036 21.25 16.625 21.25 15.547V8.53238C21.25 8.5045 21.2496 8.47668 21.2487 8.44894L12.7504 12.4744L12.751 21.15Z" fill="#41416E"/>
</g>
<defs>
<clipPath id="clip0_501_26526">
<rect width="24" height="24" fill="white"/>
</clipPath>
</defs>
</svg>
