<svg width="24" height="24" viewBox="0 0 24 24" fill="none" xmlns="http://www.w3.org/2000/svg">
<g clip-path="url(#clip0_501_26458)">
<path fill-rule="evenodd" clip-rule="evenodd" d="M12.75 16.7318C13.6239 16.423 14.25 15.5895 14.25 14.6099C14.25 13.3672 13.2426 12.3599 12 12.3599C10.7574 12.3599 9.75 13.3672 9.75 14.6099C9.75 15.5895 10.3761 16.423 11.25 16.7318V18.1099C11.25 18.5241 11.5858 18.8599 12 18.8599C12.4142 18.8599 12.75 18.5241 12.75 18.1099V16.7318ZM12 13.8599C11.5858 13.8599 11.25 14.1957 11.25 14.6099C11.25 15.0241 11.5858 15.3599 12 15.3599C12.4142 15.3599 12.75 15.0241 12.75 14.6099C12.75 14.1957 12.4142 13.8599 12 13.8599Z" fill="#41416E"/>
<path fill-rule="evenodd" clip-rule="evenodd" d="M12 1.35986C9.18599 1.35986 6.75 3.40591 6.75 6.10986L6.75 8.42583C4.76049 8.78006 3.25 10.5186 3.25 12.6099V18.6099C3.25 20.9571 5.15279 22.8599 7.5 22.8599H16.5C18.8472 22.8599 20.75 20.9571 20.75 18.6099V12.6099C20.75 10.5186 19.2395 8.78006 17.25 8.42583V6.10986C17.25 3.40591 14.814 1.35986 12 1.35986ZM15.75 8.35986V6.10986C15.75 4.39554 14.1566 2.85986 12 2.85986C9.84345 2.85986 8.25 4.39554 8.25 6.10986L8.25 8.35986H15.75ZM7.5 9.85986C5.98122 9.85986 4.75 11.0911 4.75 12.6099V18.6099C4.75 20.1286 5.98122 21.3599 7.5 21.3599H16.5C18.0188 21.3599 19.25 20.1286 19.25 18.6099V12.6099C19.25 11.0911 18.0188 9.85986 16.5 9.85986H7.5Z" fill="#41416E"/>
</g>
<defs>
<clipPath id="clip0_501_26458">
<rect width="24" height="24" fill="white"/>
</clipPath>
</defs>
</svg>
