<svg width="24" height="24" viewBox="0 0 24 24" fill="none" xmlns="http://www.w3.org/2000/svg">
<g clip-path="url(#clip0_501_26320)">
<path fill-rule="evenodd" clip-rule="evenodd" d="M20 2.25C18.4812 2.25 17.25 3.48122 17.25 5C17.25 6.51878 18.4812 7.75 20 7.75C21.5188 7.75 22.75 6.51878 22.75 5C22.75 3.48122 21.5188 2.25 20 2.25ZM18.75 5C18.75 4.30964 19.3096 3.75 20 3.75C20.6904 3.75 21.25 4.30964 21.25 5C21.25 5.69036 20.6904 6.25 20 6.25C19.3096 6.25 18.75 5.69036 18.75 5Z" fill="#41416E"/>
<path d="M5.5 4.75C3.98122 4.75 2.75 5.98122 2.75 7.5V16.5C2.75 18.0188 3.98122 19.25 5.5 19.25H17.5C19.0188 19.25 20.25 18.0188 20.25 16.5V10.5C20.25 10.0858 20.5858 9.75 21 9.75C21.4142 9.75 21.75 10.0858 21.75 10.5V16.5C21.75 18.8472 19.8472 20.75 17.5 20.75H5.5C3.15279 20.75 1.25 18.8472 1.25 16.5V7.5C1.25 5.15279 3.15279 3.25 5.5 3.25H14.5C14.9142 3.25 15.25 3.58579 15.25 4C15.25 4.41421 14.9142 4.75 14.5 4.75H5.5Z" fill="#41416E"/>
<path d="M6.03064 9.02506C6.29293 8.70448 6.76545 8.65723 7.08603 8.91952L10.3918 11.6243C11.0365 12.1517 11.9635 12.1517 12.6082 11.6243L15.914 8.91952C16.2345 8.65723 16.7071 8.70448 16.9694 9.02506C17.2316 9.34565 17.1844 9.81816 16.8638 10.0805L13.558 12.7852C12.3608 13.7647 10.6392 13.7647 9.44197 12.7852L6.13618 10.0805C5.81559 9.81816 5.76834 9.34565 6.03064 9.02506Z" fill="#41416E"/>
</g>
<defs>
<clipPath id="clip0_501_26320">
<rect width="24" height="24" fill="white"/>
</clipPath>
</defs>
</svg>
