<svg width="24" height="24" viewBox="0 0 24 24" fill="none" xmlns="http://www.w3.org/2000/svg">
<g clip-path="url(#clip0_501_26316)">
<path fill-rule="evenodd" clip-rule="evenodd" d="M15.25 5C15.25 2.92893 16.9289 1.25 19 1.25C21.0711 1.25 22.75 2.92893 22.75 5C22.75 7.07107 21.0711 8.75 19 8.75C17.6401 8.75 16.4492 8.0261 15.7918 6.94263L8.47945 10.5988C8.65395 11.0317 8.75 11.5046 8.75 12C8.75 12.4954 8.65395 12.9683 8.47945 13.4012L15.7918 17.0574C16.4492 15.9739 17.6401 15.25 19 15.25C21.0711 15.25 22.75 16.9289 22.75 19C22.75 21.0711 21.0711 22.75 19 22.75C16.9289 22.75 15.25 21.0711 15.25 19C15.25 18.824 15.2621 18.6509 15.2856 18.4813L7.66457 14.6708C7.65744 14.6673 7.6504 14.6636 7.64343 14.6598C6.96547 15.3336 6.03136 15.75 5 15.75C2.92893 15.75 1.25 14.0711 1.25 12C1.25 9.92893 2.92893 8.25 5 8.25C6.03136 8.25 6.96547 8.66636 7.64343 9.34015C7.6504 9.3364 7.65744 9.33273 7.66457 9.32917L15.2856 5.51866C15.2621 5.34913 15.25 5.17598 15.25 5ZM19 2.75C17.7574 2.75 16.75 3.75736 16.75 5C16.75 6.24264 17.7574 7.25 19 7.25C20.2426 7.25 21.25 6.24264 21.25 5C21.25 3.75736 20.2426 2.75 19 2.75ZM5 9.75C3.75736 9.75 2.75 10.7574 2.75 12C2.75 13.2426 3.75736 14.25 5 14.25C6.24264 14.25 7.25 13.2426 7.25 12C7.25 10.7574 6.24264 9.75 5 9.75ZM16.75 19C16.75 17.7574 17.7574 16.75 19 16.75C20.2426 16.75 21.25 17.7574 21.25 19C21.25 20.2426 20.2426 21.25 19 21.25C17.7574 21.25 16.75 20.2426 16.75 19Z" fill="#41416E"/>
</g>
<defs>
<clipPath id="clip0_501_26316">
<rect width="24" height="24" fill="white"/>
</clipPath>
</defs>
</svg>
