<svg width="24" height="24" viewBox="0 0 24 24" fill="none" xmlns="http://www.w3.org/2000/svg">
<g clip-path="url(#clip0_501_26578)">
<path d="M10.4697 7.53033C10.7626 7.82322 11.2374 7.82322 11.5303 7.53033C11.8232 7.23744 11.8232 6.76256 11.5303 6.46967L7.53033 2.46967C7.23744 2.17678 6.76256 2.17678 6.46967 2.46967L2.46967 6.46967C2.17678 6.76256 2.17678 7.23744 2.46967 7.53033C2.76256 7.82322 3.23744 7.82322 3.53033 7.53033L6.25 4.81066L6.25001 17C6.25001 17.4142 6.58579 17.75 7.00001 17.75C7.41422 17.75 7.75001 17.4142 7.75001 17L7.75 4.81066L10.4697 7.53033Z" fill="#41416E"/>
<path d="M13.5303 16.4697C13.2374 16.1768 12.7626 16.1768 12.4697 16.4697C12.1768 16.7626 12.1768 17.2374 12.4697 17.5303L16.4697 21.5303C16.7626 21.8232 17.2374 21.8232 17.5303 21.5303L21.5303 17.5303C21.8232 17.2374 21.8232 16.7626 21.5303 16.4697C21.2374 16.1768 20.7626 16.1768 20.4697 16.4697L17.75 19.1893L17.75 7C17.75 6.58579 17.4142 6.25 17 6.25C16.5858 6.25 16.25 6.58579 16.25 7L16.25 19.1893L13.5303 16.4697Z" fill="#41416E"/>
</g>
<defs>
<clipPath id="clip0_501_26578">
<rect width="24" height="24" fill="white"/>
</clipPath>
</defs>
</svg>
