<svg width="24" height="24" viewBox="0 0 24 24" fill="none" xmlns="http://www.w3.org/2000/svg">
<g clip-path="url(#clip0_501_26484)">
<path fill-rule="evenodd" clip-rule="evenodd" d="M10 1.25C7.1005 1.25 4.75 3.6005 4.75 6.5C4.75 9.3995 7.1005 11.75 10 11.75C12.8995 11.75 15.25 9.3995 15.25 6.5C15.25 3.6005 12.8995 1.25 10 1.25ZM6.25 6.5C6.25 4.42893 7.92893 2.75 10 2.75C12.0711 2.75 13.75 4.42893 13.75 6.5C13.75 8.57107 12.0711 10.25 10 10.25C7.92893 10.25 6.25 8.57107 6.25 6.5Z" fill="#41416E"/>
<path fill-rule="evenodd" clip-rule="evenodd" d="M9.99972 13.25C6.14883 13.25 2.39907 15.0689 1.39489 18.951C1.30849 19.285 1.25155 19.5978 1.25003 19.9216C1.24848 20.2517 1.30456 20.5572 1.40453 20.8803C1.4965 21.1775 1.66701 21.4682 1.85164 21.707C2.03576 21.9452 2.27716 22.1876 2.55149 22.3522C3.21769 22.7518 3.89803 22.751 4.74056 22.7501H15.2589C16.1014 22.751 16.7818 22.7518 17.448 22.3522C17.7215 22.1881 17.9629 21.9467 18.1475 21.7088C18.3325 21.4705 18.5038 21.1797 18.596 20.8817C18.8115 20.1854 18.7882 19.661 18.6046 18.951C17.6004 15.0689 13.8506 13.25 9.99972 13.25ZM2.84709 19.3266C3.61527 16.3569 6.5342 14.75 9.99972 14.75C13.4652 14.75 16.3842 16.3569 17.1524 19.3266C17.2824 19.8291 17.2791 20.0631 17.163 20.4383C17.1387 20.5168 17.0718 20.6483 16.9625 20.7892C16.8528 20.9306 16.7438 21.0254 16.6764 21.0658C16.4046 21.2288 16.1574 21.25 15.135 21.25H4.86443C3.84207 21.25 3.59483 21.2288 3.32305 21.0658C3.25645 21.0259 3.14797 20.9314 3.03832 20.7896C2.92919 20.6484 2.86203 20.5162 2.8375 20.4369C2.77169 20.2242 2.74934 20.0729 2.75001 19.9286C2.75072 19.778 2.77666 19.5989 2.84709 19.3266Z" fill="#41416E"/>
<path d="M22.75 9C22.75 9.41421 22.4142 9.75 22 9.75H20.25V11.5C20.25 11.9142 19.9142 12.25 19.5 12.25C19.0858 12.25 18.75 11.9142 18.75 11.5V9.75H17C16.5858 9.75 16.25 9.41421 16.25 9C16.25 8.58579 16.5858 8.25 17 8.25H18.75V6.5C18.75 6.08579 19.0858 5.75 19.5 5.75C19.9142 5.75 20.25 6.08579 20.25 6.5V8.25H22C22.4142 8.25 22.75 8.58579 22.75 9Z" fill="#41416E"/>
</g>
<defs>
<clipPath id="clip0_501_26484">
<rect width="24" height="24" fill="white"/>
</clipPath>
</defs>
</svg>
