<svg width="24" height="24" viewBox="0 0 24 24" fill="none" xmlns="http://www.w3.org/2000/svg">
<g clip-path="url(#clip0_501_26630)">
<path d="M8.5 14.5C7.5335 14.5 6.75 15.2835 6.75 16.25C6.75 16.6642 6.41421 17 6 17C5.58579 17 5.25 16.6642 5.25 16.25C5.25 14.4551 6.70507 13 8.5 13C10.2949 13 11.75 14.4551 11.75 16.25C11.75 16.6642 11.4142 17 11 17C10.5858 17 10.25 16.6642 10.25 16.25C10.25 15.2835 9.4665 14.5 8.5 14.5Z" fill="#41416E"/>
<path fill-rule="evenodd" clip-rule="evenodd" d="M8.5 7C6.98122 7 5.75 8.23122 5.75 9.75C5.75 11.2688 6.98122 12.5 8.5 12.5C10.0188 12.5 11.25 11.2688 11.25 9.75C11.25 8.23122 10.0188 7 8.5 7ZM7.25 9.75C7.25 9.05964 7.80964 8.5 8.5 8.5C9.19036 8.5 9.75 9.05964 9.75 9.75C9.75 10.4404 9.19036 11 8.5 11C7.80964 11 7.25 10.4404 7.25 9.75Z" fill="#41416E"/>
<path d="M12.75 10.25C12.75 9.83579 13.0858 9.5 13.5 9.5H18C18.4142 9.5 18.75 9.83579 18.75 10.25C18.75 10.6642 18.4142 11 18 11H13.5C13.0858 11 12.75 10.6642 12.75 10.25Z" fill="#41416E"/>
<path d="M15 13.5C14.5858 13.5 14.25 13.8358 14.25 14.25C14.25 14.6642 14.5858 15 15 15H18C18.4142 15 18.75 14.6642 18.75 14.25C18.75 13.8358 18.4142 13.5 18 13.5H15Z" fill="#41416E"/>
<path fill-rule="evenodd" clip-rule="evenodd" d="M1.25 6.5C1.25 4.15279 3.15279 2.25 5.5 2.25H18.5C20.8472 2.25 22.75 4.15279 22.75 6.5V17.5C22.75 19.8472 20.8472 21.75 18.5 21.75H5.5C3.15279 21.75 1.25 19.8472 1.25 17.5V6.5ZM5.5 3.75C3.98122 3.75 2.75 4.98122 2.75 6.5V17.5C2.75 19.0188 3.98122 20.25 5.5 20.25H18.5C20.0188 20.25 21.25 19.0188 21.25 17.5V6.5C21.25 4.98122 20.0188 3.75 18.5 3.75H5.5Z" fill="#41416E"/>
</g>
<defs>
<clipPath id="clip0_501_26630">
<rect width="24" height="24" fill="white"/>
</clipPath>
</defs>
</svg>
