<svg width="24" height="24" viewBox="0 0 24 24" fill="none" xmlns="http://www.w3.org/2000/svg">
<g clip-path="url(#clip0_501_26600)">
<path fill-rule="evenodd" clip-rule="evenodd" d="M12 1.25C9.1005 1.25 6.75 3.6005 6.75 6.5C6.75 9.3995 9.1005 11.75 12 11.75C14.8995 11.75 17.25 9.3995 17.25 6.5C17.25 3.6005 14.8995 1.25 12 1.25ZM8.25 6.5C8.25 4.42893 9.92893 2.75 12 2.75C14.0711 2.75 15.75 4.42893 15.75 6.5C15.75 8.57107 14.0711 10.25 12 10.25C9.92893 10.25 8.25 8.57107 8.25 6.5Z" fill="#41416E"/>
<path d="M4.75 22C4.75 17.4743 8.35143 14.75 12 14.75C15.6486 14.75 19.25 17.4743 19.25 22C19.25 22.4142 19.5858 22.75 20 22.75C20.4142 22.75 20.75 22.4142 20.75 22C20.75 16.5257 16.3514 13.25 12 13.25C7.64853 13.25 3.25 16.5257 3.25 22C3.25 22.4142 3.58579 22.75 4 22.75C4.41421 22.75 4.75 22.4142 4.75 22Z" fill="#41416E"/>
</g>
<defs>
<clipPath id="clip0_501_26600">
<rect width="24" height="24" fill="white"/>
</clipPath>
</defs>
</svg>
