<svg width="24" height="24" viewBox="0 0 24 24" fill="none" xmlns="http://www.w3.org/2000/svg">
<g clip-path="url(#clip0_501_26285)">
<path fill-rule="evenodd" clip-rule="evenodd" d="M14.8972 16.0116C16.0548 15.3363 16.0548 13.6637 14.8972 12.9884L11.8818 11.2294C10.7151 10.5489 9.25002 11.3904 9.25002 12.741V16.259C9.25002 17.6096 10.7151 18.4511 11.8818 17.7706L14.8972 16.0116ZM14.1413 14.2841C14.3067 14.3805 14.3067 14.6195 14.1413 14.7159L11.126 16.4749C10.9593 16.5721 10.75 16.4519 10.75 16.259V12.741C10.75 12.5481 10.9593 12.4279 11.126 12.5251L14.1413 14.2841Z" fill="#41416E"/>
<path fill-rule="evenodd" clip-rule="evenodd" d="M9.51897 1.25H16.4809C16.4935 1.24968 16.5062 1.24967 16.519 1.25H18.5C20.8472 1.25 22.75 3.15279 22.75 5.5V18.5C22.75 20.8472 20.8472 22.75 18.5 22.75H5.5C3.15279 22.75 1.25 20.8472 1.25 18.5V5.5C1.25 3.15279 3.15279 1.25 5.5 1.25H9.48085C9.49352 1.24968 9.50623 1.24967 9.51897 1.25ZM10.0406 2.75H15.4594L13.9594 7.25H8.54058L10.0406 2.75ZM14.5157 8.75C14.5053 8.75022 14.495 8.75022 14.4846 8.75H7.5157C7.50534 8.75022 7.49496 8.75022 7.48455 8.75H2.75V18.5C2.75 20.0188 3.98122 21.25 5.5 21.25H18.5C20.0188 21.25 21.25 20.0188 21.25 18.5V8.75H14.5157ZM17.0406 2.75L15.5406 7.25H21.25V5.5C21.25 3.98122 20.0188 2.75 18.5 2.75H17.0406ZM6.95944 7.25H2.75V5.5C2.75 3.98122 3.98122 2.75 5.5 2.75H8.45944L6.95944 7.25Z" fill="#41416E"/>
</g>
<defs>
<clipPath id="clip0_501_26285">
<rect width="24" height="24" fill="white"/>
</clipPath>
</defs>
</svg>
